<svg xmlns="http://www.w3.org/2000/svg" xmlns:mydata="http://www.w3.org/2000/svg" mydata:companyname="Platyweb" mydata:companytagline="Best Sex Toys in Germany" mydata:contrastcolor="11111f" mydata:id1="811" mydata:id2="194" mydata:layouttype="undefined" mydata:presentation="2.5" mydata:specialfontid="undefined" mydata:template="Contrast" viewBox="0 35 550 400">
  <g fill="#e277cd" stroke-miterlimit="10" data-paper-data="{&quot;isGlobalGroup&quot;:true,&quot;bounds&quot;:{&quot;x&quot;:121.92301133941513,&quot;y&quot;:114.99999999999999,&quot;width&quot;:306.1539773211697,&quot;height&quot;:240}}" font-family="none" font-size="none" font-weight="none" style="mix-blend-mode:normal" text-anchor="none">
    <g data-paper-data="{&quot;isSecondaryText&quot;:true}">
      <path d="M151.03058 325.42005c0 .44478-.07489.8487-.22466 1.21179-.14977.36308-.35174.67284-.60589.92926-.25416.25643-.54803.45499-.88161.59568-.33358.14069-.68191.21104-1.045.21104h-5.05819c-.06808 0-.13162-.02496-.19062-.07489-.059-.04992-.0885-.118-.0885-.20423l.10212-9.44922c0-.07715.03064-.14523.09191-.20423.06127-.059.13729-.0885.22806-.0885h4.56122c.39939 0 .7568.08056 1.07223.24168.31543.16112.58207.37102.79992.62972.21785.2587.38464.55257.50037.88161s.1736.66149.1736.99734c0 .20877-.02383.40506-.07148.58887-.04765.18381-.10666.35401-.177.51058-.07035.15658-.14977.29841-.23827.42549-.0885.12708-.1736.23827-.25529.33358.08169.04085.19516.12481.34039.25189.14523.12708.28933.295.43229.50378.14296.20877.26777.45612.37443.74205.10666.28593.15998.60816.15998.96671zm-6.5559-3.28136c0 .06354.02383.12027.07148.17019.04765.04992.10325.07489.16679.07489h3.00904c.21785 0 .4096-.03631.57526-.10892.16566-.07262.30295-.16906.41187-.28933.10892-.12027.19175-.25983.24848-.41868s.0851-.3245.0851-.49697c0-.16339-.02496-.3245-.07489-.48335-.04992-.15885-.12481-.29954-.22466-.42208-.09985-.12254-.22239-.22239-.36762-.29954-.14523-.07715-.31316-.11573-.50378-.11573h-3.15201c-.07715 0-.14183.02269-.19402.06808-.05219.04539-.07829.11119-.07829.19743zm4.94246 3.29497c0-.20423-.02723-.40506-.08169-.60249-.05446-.19743-.13956-.37329-.25529-.5276-.11573-.15431-.26437-.27912-.44591-.37443-.18154-.09531-.40166-.14523-.66036-.14977h-3.2337c-.07715 0-.13729.02837-.18041.0851-.04312.05673-.06467.11914-.06467.18721l.02723 2.56654c0 .05446.02269.10439.06808.14977.04539.04539.09531.07035.14977.07489h3.43113c.21785 0 .40506-.04652.56164-.13956.15658-.09304.28593-.20991.38804-.3506.10212-.14069.177-.29274.22466-.45612.04765-.16339.07148-.3177.07148-.46293z" data-paper-data="{&quot;glyphName&quot;:&quot;B&quot;,&quot;glyphIndex&quot;:0,&quot;firstGlyphOfWord&quot;:true,&quot;word&quot;:1}"/>
      <path d="M162.47214 328.0887c0 .06808-.02723.13162-.08169.19062-.05446.059-.12027.0885-.19743.0885h-6.50144c-.06808 0-.13162-.02496-.19062-.07489-.059-.04992-.0885-.118-.0885-.20423l.10212-9.44922c0-.07715.03064-.14523.09191-.20423.06127-.059.13729-.0885.22806-.0885h6.2019c.059 0 .11573.02496.17019.07489.05446.04992.08169.10666.08169.17019l.02042.89182c0 .08623-.02496.15091-.07489.19402-.04992.04312-.10666.06694-.17019.07148h-4.8948c-.07262.00454-.13162.03064-.177.07829-.04539.04765-.06808.11006-.06808.18721l.02723 2.12403c0 .06354.02269.12027.06808.17019.04539.04992.10212.07489.17019.07489h4.43868c.06808 0 .12594.0261.1736.07829.04765.05219.07148.10779.07148.16679l.02042.91224c0 .059-.02496.11346-.07489.16339-.04992.04992-.10666.07489-.17019.07489h-4.41826c-.07262 0-.13389.02383-.18381.07148-.04992.04765-.07489.11233-.07489.19402l.02723 2.55973c0 .059.02383.11233.07148.15998.04765.04765.10325.07148.16679.07148h4.92884c.06808 0 .13162.01929.19062.05787.059.03858.09304.10325.10212.19402z" data-paper-data="{&quot;glyphName&quot;:&quot;E&quot;,&quot;glyphIndex&quot;:1,&quot;word&quot;:1}"/>
      <path d="M174.79785 325.56301c-.00454.39485-.05787.74205-.15998 1.04159-.10212.29954-.24508.55824-.42889.77609s-.40166.40053-.65355.54803c-.25189.1475-.5276.26437-.82715.3506-.29954.08623-.61837.1475-.95649.18381-.33812.03631-.68418.05446-1.03819.05446-.26323 0-.54235-.02042-.83736-.06127-.295-.04085-.59001-.10892-.88501-.20423-.295-.09531-.58207-.21898-.86119-.37102-.27912-.15204-.53214-.33925-.75907-.56164-.22693-.22239-.41868-.48222-.57526-.77949-.15658-.29727-.2621-.63653-.31656-1.01776-.00908-.08623.00794-.16679.05106-.24168.04312-.07489.12367-.11233.24168-.11233h1.02798c.04992 0 .10439.02042.16339.06127.059.04085.09531.08623.10892.13616.06808.31316.19629.58093.38464.80332.18835.22239.4062.40279.65355.54122.24735.13843.50945.23941.7863.30295.27685.06354.54008.09531.7897.09531.14977 0 .31202-.00908.48676-.02723.17473-.01815.34947-.04765.5242-.0885s.34266-.09644.50378-.16679c.16112-.07035.30408-.15885.42889-.2655.12481-.10666.22466-.2326.29954-.37783.07489-.14523.11233-.31316.11233-.50378-.00454-.26323-.07602-.48222-.21445-.65695-.13843-.17473-.32791-.32337-.56845-.44591-.24054-.12254-.5242-.2326-.85097-.33018-.32677-.09758-.68078-.2031-1.06202-.31656-.22239-.08169-.46066-.15998-.71482-.23487-.25416-.07489-.50832-.15998-.76247-.25529-.25416-.09531-.49697-.20764-.72843-.33699-.23146-.12935-.43683-.28933-.61611-.47995-.17927-.19062-.32224-.41981-.42889-.68759-.10666-.26777-.15998-.58547-.15998-.95309 0-.46293.09417-.86799.28252-1.21519.18835-.3472.44251-.63653.76247-.86799.31997-.23146.68986-.40506 1.10967-.5208.41981-.11573.86119-.1736 1.32412-.1736.44931 0 .89296.05446 1.33092.16339.43797.10892.83849.27798 1.20158.50718.36308.2292.6717.5208.92586.8748.25416.35401.42208.77382.50378 1.25944-.00908.07262-.04085.13843-.09531.19743-.05446.059-.12027.0885-.19743.0885h-.9599c-.07715 0-.14296-.0295-.19743-.0885-.05446-.059-.09531-.12254-.12254-.19062-.12254-.31316-.28366-.56505-.48335-.75566-.1997-.19062-.40847-.33925-.62632-.44591-.21785-.10666-.43116-.177-.63993-.21104-.20877-.03404-.38124-.05106-.51739-.05106-.236 0-.48108.01815-.73524.05446s-.48676.10325-.6978.20083c-.21104.09758-.38351.23487-.51739.41187-.13389.177-.19856.40847-.19402.69439.00454.19516.05673.36535.15658.51058.09985.14523.22806.27345.38464.38464.15658.11119.33358.2065.53101.28593.19743.07942.39599.14864.59568.20764.1997.059.39145.11006.57526.15318.18381.04312.34152.0851.47314.12594.1997.06808.42889.13162.68759.19062.2587.059.5242.13048.79651.21445.27231.08396.54008.18835.80332.31316.26323.12481.49697.28593.7012.48335.20423.19743.36876.44137.49356.73184.12481.29047.18721.63993.18721 1.0484z" data-paper-data="{&quot;glyphName&quot;:&quot;S&quot;,&quot;glyphIndex&quot;:2,&quot;word&quot;:1}"/>
      <path d="M186.13588 319.49727c0 .06808-.02383.12594-.07148.1736-.04765.04765-.10325.07375-.16679.07829h-2.77758c-.07715 0-.13956.02269-.18721.06808s-.07148.10212-.07148.17019l.0885 8.10127c0 .08623-.0295.15431-.0885.20423-.059.04992-.12254.07489-.19062.07489h-1.04159c-.06808 0-.13162-.02496-.19062-.07489-.059-.04992-.0885-.118-.0885-.20423l.0885-8.09447c0-.059-.02156-.1146-.06467-.16679-.04312-.05219-.10325-.07829-.18041-.07829h-2.70269c-.059 0-.11346-.02269-.16339-.06808-.04992-.04539-.07489-.10666-.07489-.18381l.01362-.91905c0-.06808.02723-.12367.08169-.16679.05446-.04312.10892-.06467.16339-.06467h7.35922c.06354 0 .12141.02156.1736.06467.05219.04312.07829.09871.07829.16679z" data-paper-data="{&quot;glyphName&quot;:&quot;T&quot;,&quot;glyphIndex&quot;:3,&quot;lastGlyphOfWord&quot;:true,&quot;word&quot;:1}"/>
      <path d="M205.10053 325.56301c-.00454.39485-.05787.74205-.15998 1.04159-.10212.29954-.24508.55824-.42889.77609s-.40166.40053-.65355.54803c-.25189.1475-.5276.26437-.82715.3506-.29954.08623-.61837.1475-.95649.18381-.33812.03631-.68418.05446-1.03819.05446-.26323 0-.54235-.02042-.83736-.06127-.295-.04085-.59001-.10892-.88501-.20423-.295-.09531-.58207-.21898-.86119-.37102-.27912-.15204-.53214-.33925-.75907-.56164-.22693-.22239-.41868-.48222-.57526-.77949-.15658-.29727-.2621-.63653-.31656-1.01776-.00908-.08623.00794-.16679.05106-.24168.04312-.07489.12367-.11233.24168-.11233h1.02798c.04992 0 .10439.02042.16339.06127.059.04085.09531.08623.10892.13616.06808.31316.19629.58093.38464.80332.18835.22239.4062.40279.65355.54122.24735.13843.50945.23941.7863.30295.27685.06354.54008.09531.7897.09531.14977 0 .31202-.00908.48676-.02723.17473-.01815.34947-.04765.5242-.0885s.34266-.09644.50378-.16679c.16112-.07035.30408-.15885.42889-.2655.12481-.10666.22466-.2326.29954-.37783.07489-.14523.11233-.31316.11233-.50378-.00454-.26323-.07602-.48222-.21445-.65695-.13843-.17473-.32791-.32337-.56845-.44591-.24054-.12254-.5242-.2326-.85097-.33018-.32677-.09758-.68078-.2031-1.06202-.31656-.22239-.08169-.46066-.15998-.71482-.23487-.25416-.07489-.50832-.15998-.76247-.25529-.25416-.09531-.49697-.20764-.72843-.33699-.23146-.12935-.43683-.28933-.61611-.47995-.17927-.19062-.32224-.41981-.42889-.68759-.10666-.26777-.15998-.58547-.15998-.95309 0-.46293.09417-.86799.28252-1.21519.18835-.3472.44251-.63653.76247-.86799.31997-.23146.68986-.40506 1.10967-.5208.41981-.11573.86119-.1736 1.32412-.1736.44931 0 .89296.05446 1.33092.16339.43797.10892.83849.27798 1.20158.50718.36308.2292.6717.5208.92586.8748.25416.35401.42208.77382.50378 1.25944-.00908.07262-.04085.13843-.09531.19743-.05446.059-.12027.0885-.19743.0885h-.9599c-.07715 0-.14296-.0295-.19743-.0885-.05446-.059-.09531-.12254-.12254-.19062-.12254-.31316-.28366-.56505-.48335-.75566-.1997-.19062-.40847-.33925-.62632-.44591-.21785-.10666-.43116-.177-.63993-.21104-.20877-.03404-.38124-.05106-.51739-.05106-.236 0-.48108.01815-.73524.05446s-.48676.10325-.6978.20083c-.21104.09758-.38351.23487-.51739.41187-.13389.177-.19856.40847-.19402.69439.00454.19516.05673.36535.15658.51058.09985.14523.22806.27345.38464.38464.15658.11119.33358.2065.53101.28593.19743.07942.39599.14864.59568.20764.1997.059.39145.11006.57526.15318.18381.04312.34152.0851.47314.12594.1997.06808.42889.13162.68759.19062.2587.059.5242.13048.79651.21445.27231.08396.54008.18835.80332.31316.26323.12481.49697.28593.7012.48335.20423.19743.36876.44137.49356.73184.12481.29047.18721.63993.18721 1.0484z" data-paper-data="{&quot;glyphName&quot;:&quot;S&quot;,&quot;glyphIndex&quot;:4,&quot;firstGlyphOfWord&quot;:true,&quot;word&quot;:2}"/>
      <path d="M216.34434 328.0887c0 .06808-.02723.13162-.08169.19062-.05446.059-.12027.0885-.19743.0885h-6.50144c-.06808 0-.13162-.02496-.19062-.07489-.059-.04992-.0885-.118-.0885-.20423l.10212-9.44922c0-.07715.03064-.14523.09191-.20423.06127-.059.13729-.0885.22806-.0885h6.2019c.059 0 .11573.02496.17019.07489.05446.04992.08169.10666.08169.17019l.02042.89182c0 .08623-.02496.15091-.07489.19402-.04992.04312-.10666.06694-.17019.07148h-4.8948c-.07262.00454-.13162.03064-.177.07829-.04539.04765-.06808.11006-.06808.18721l.02723 2.12403c0 .06354.02269.12027.06808.17019.04539.04992.10212.07489.17019.07489h4.43868c.06808 0 .12594.0261.1736.07829.04765.05219.07148.10779.07148.16679l.02042.91224c0 .059-.02496.11346-.07489.16339-.04992.04992-.10666.07489-.17019.07489h-4.41826c-.07262 0-.13389.02383-.18381.07148-.04992.04765-.07489.11233-.07489.19402l.02723 2.55973c0 .059.02383.11233.07148.15998.04765.04765.10325.07148.16679.07148h4.92884c.06808 0 .13162.01929.19062.05787.059.03858.09304.10325.10212.19402z" data-paper-data="{&quot;glyphName&quot;:&quot;E&quot;,&quot;glyphIndex&quot;:5,&quot;word&quot;:2}"/>
      <path d="M225.49057 323.20071c-.01815.04085-.0329.08396-.04425.12935-.01135.04539.00113.08623.03744.12254l3.02266 4.42507c.03631.04992.05673.10325.06127.15998.00454.05673-.00454.10892-.02723.15658-.02269.04765-.05673.0885-.10212.12254s-.09531.05106-.14977.05106h-1.25944c-.03631 0-.07489-.00681-.11573-.02042-.04085-.01362-.07262-.03858-.09531-.07489l-2.21253-3.38347c-.06808-.08169-.14637-.12141-.23487-.11914-.0885.00227-.15771.04198-.20764.11914l-2.0968 3.36986c-.02723.03177-.059.05787-.09531.07829-.03631.02042-.07715.03064-.12254.03064h-1.19817c-.059 0-.11233-.01475-.15998-.04425-.04765-.0295-.0851-.06808-.11233-.11573-.02723-.04765-.04198-.10098-.04425-.15998-.00227-.059.01475-.11573.05106-.17019l2.90693-4.42507c.01815-.03177.0261-.07602.02383-.13275-.00227-.05673-.01248-.09644-.03064-.11914l-2.66865-4.36379c-.04085-.04992-.06127-.10439-.06127-.16339 0-.059.01362-.11233.04085-.15998.02723-.04765.0624-.08737.10552-.11914.04312-.03177.08964-.04765.13956-.04765h.99394c.08623 0 .15885.04312.21785.12935l2.11722 3.32901c.02723.03631.06127.06354.10212.08169.04085.01815.08283.0261.12594.02383.04312-.00227.08283-.01362.11914-.03404.03631-.02042.06354-.05106.08169-.09191l2.11042-3.30178c.059-.09077.12935-.13616.21104-.13616h.98713c.06354 0 .118.01815.16339.05446.04539.03631.07829.08056.09871.13275.02042.05219.02837.10892.02383.17019-.00454.06127-.02723.11914-.06808.1736z" data-paper-data="{&quot;glyphName&quot;:&quot;X&quot;,&quot;glyphIndex&quot;:6,&quot;lastGlyphOfWord&quot;:true,&quot;word&quot;:2}"/>
      <path d="M246.95302 319.49727c0 .06808-.02383.12594-.07148.1736-.04765.04765-.10325.07375-.16679.07829h-2.77758c-.07715 0-.13956.02269-.18721.06808s-.07148.10212-.07148.17019l.0885 8.10127c0 .08623-.0295.15431-.0885.20423-.059.04992-.12254.07489-.19062.07489h-1.04159c-.06808 0-.13162-.02496-.19062-.07489-.059-.04992-.0885-.118-.0885-.20423l.0885-8.09447c0-.059-.02156-.1146-.06467-.16679-.04312-.05219-.10325-.07829-.18041-.07829h-2.70269c-.059 0-.11346-.02269-.16339-.06808-.04992-.04539-.07489-.10666-.07489-.18381l.01362-.91905c0-.06808.02723-.12367.08169-.16679.05446-.04312.10892-.06467.16339-.06467h7.35922c.06354 0 .12141.02156.1736.06467.05219.04312.07829.09871.07829.16679z" data-paper-data="{&quot;glyphName&quot;:&quot;T&quot;,&quot;glyphIndex&quot;:7,&quot;firstGlyphOfWord&quot;:true,&quot;word&quot;:3}"/>
      <path d="M255.66013 318.20379c.45839 0 .89863.06014 1.32071.18041.42208.12027.8158.29047 1.18115.51058.36535.22012.69893.48562 1.00075.79651.30181.31089.55937.65355.77268 1.02798.21331.37443.37783.77836.49356 1.21179.11573.43343.1736.88388.1736 1.35135 0 .7307-.12481 1.41489-.37443 2.05255-.24962.63766-.59568 1.1925-1.03819 1.66451-.44251.47201-.96784.84303-1.576 1.11307-.60816.27004-1.27079.40506-1.98788.40506-.70347 0-1.35589-.13502-1.95724-.40506-.60135-.27004-1.12329-.64107-1.56579-1.11307-.44251-.47201-.7897-1.02457-1.04159-1.6577-.25189-.63312-.37783-1.31504-.37783-2.04574 0-.47201.05787-.92586.1736-1.36156.11573-.4357.28139-.8419.49697-1.21859.21558-.3767.47314-.71936.77268-1.02798.29954-.30862.63426-.57299 1.00415-.79311.36989-.22012.76815-.39031 1.19477-.51058.42662-.12027.8714-.18041 1.33433-.18041zm-.01361 8.9114c.34493 0 .66943-.0556.97351-.16679s.58207-.2621.83395-.45272c.25189-.19062.47655-.41187.67397-.66376.19743-.25189.36422-.51966.50037-.80332.13616-.28366.24054-.57412.31316-.8714.07262-.29727.10892-.58434.10892-.86119 0-.27231-.03404-.55484-.10212-.84757-.06808-.29274-.16906-.57753-.30295-.85438-.13389-.27685-.29841-.53895-.49356-.7863-.19516-.24735-.41868-.46406-.67057-.65014-.25189-.18608-.53101-.33358-.83736-.44251-.30635-.10892-.6388-.16339-.99734-.16339-.36308 0-.70007.05446-1.01096.16339-.31089.10892-.59228.25756-.84417.44591-.25189.18835-.47541.4062-.67057.65355-.19516.24735-.35854.50945-.49016.7863-.13162.27685-.23146.56051-.29954.85097-.06808.29047-.10212.57185-.10212.84417 0 .29047.03517.58547.10552.88501.07035.29954.1736.59114.30975.8748.13616.28366.30181.5503.49697.79992.19516.24962.41981.46747.67397.65355.25416.18608.53441.33358.84076.44251.30635.10892.63653.16339.99053.16339z" data-paper-data="{&quot;glyphName&quot;:&quot;O&quot;,&quot;glyphIndex&quot;:8,&quot;word&quot;:3}"/>
      <path d="M271.73986 318.34675c.06354 0 .118.01815.16339.05446.04539.03631.07829.08056.09871.13275.02042.05219.02837.10892.02383.17019-.00454.06127-.02496.11687-.06127.16679l-2.94097 4.84034c-.00908.02269-.01815.04425-.02723.06467-.00908.02042-.01362.04198-.01362.06467l.11573 4.24806c0 .08623-.0295.15431-.0885.20423-.059.04992-.12254.07489-.19062.07489h-1.18456c-.06808 0-.13162-.02496-.19062-.07489-.059-.04992-.0885-.118-.0885-.20423l.11573-4.24806c0-.04992-.01135-.09304-.03404-.12935l-2.98862-4.87438c-.04085-.05446-.06127-.11006-.06127-.16679 0-.05673.01248-.10892.03744-.15658.02496-.04765.06014-.08737.10552-.11914.04539-.03177.09304-.04765.14296-.04765h.99394c.04539 0 .08737.01248.12594.03744.03858.02496.06921.0556.09191.09191l2.11722 3.32901c.02723.03631.059.06354.09531.08169.03631.01815.07489.02496.11573.02042.04085-.00454.08056-.01702.11914-.03744.03858-.02042.07148-.04879.09871-.0851l2.11042-3.30859c.02269-.03631.05333-.06694.09191-.09191.03858-.02496.07829-.03744.11914-.03744z" data-paper-data="{&quot;glyphName&quot;:&quot;Y&quot;,&quot;glyphIndex&quot;:9,&quot;word&quot;:3}"/>
      <path d="M284.07924 325.56301c-.00454.39485-.05787.74205-.15998 1.04159-.10212.29954-.24508.55824-.42889.77609s-.40166.40053-.65355.54803c-.25189.1475-.5276.26437-.82715.3506-.29954.08623-.61837.1475-.95649.18381-.33812.03631-.68418.05446-1.03819.05446-.26323 0-.54235-.02042-.83736-.06127-.295-.04085-.59001-.10892-.88501-.20423-.295-.09531-.58207-.21898-.86119-.37102-.27912-.15204-.53214-.33925-.75907-.56164-.22693-.22239-.41868-.48222-.57526-.77949-.15658-.29727-.2621-.63653-.31656-1.01776-.00908-.08623.00794-.16679.05106-.24168.04312-.07489.12367-.11233.24168-.11233h1.02798c.04992 0 .10439.02042.16339.06127.059.04085.09531.08623.10892.13616.06808.31316.19629.58093.38464.80332.18835.22239.4062.40279.65355.54122.24735.13843.50945.23941.7863.30295.27685.06354.54008.09531.7897.09531.14977 0 .31202-.00908.48676-.02723.17473-.01815.34947-.04765.5242-.0885s.34266-.09644.50378-.16679c.16112-.07035.30408-.15885.42889-.2655.12481-.10666.22466-.2326.29954-.37783.07489-.14523.11233-.31316.11233-.50378-.00454-.26323-.07602-.48222-.21445-.65695-.13843-.17473-.32791-.32337-.56845-.44591-.24054-.12254-.5242-.2326-.85097-.33018-.32677-.09758-.68078-.2031-1.06202-.31656-.22239-.08169-.46066-.15998-.71482-.23487-.25416-.07489-.50832-.15998-.76247-.25529-.25416-.09531-.49697-.20764-.72843-.33699-.23146-.12935-.43683-.28933-.61611-.47995-.17927-.19062-.32224-.41981-.42889-.68759-.10666-.26777-.15998-.58547-.15998-.95309 0-.46293.09417-.86799.28252-1.21519.18835-.3472.44251-.63653.76247-.86799.31997-.23146.68986-.40506 1.10967-.5208.41981-.11573.86119-.1736 1.32412-.1736.44931 0 .89296.05446 1.33092.16339.43797.10892.83849.27798 1.20158.50718.36308.2292.6717.5208.92586.8748.25416.35401.42208.77382.50378 1.25944-.00908.07262-.04085.13843-.09531.19743-.05446.059-.12027.0885-.19743.0885h-.9599c-.07715 0-.14296-.0295-.19743-.0885-.05446-.059-.09531-.12254-.12254-.19062-.12254-.31316-.28366-.56505-.48335-.75566-.1997-.19062-.40847-.33925-.62632-.44591-.21785-.10666-.43116-.177-.63993-.21104-.20877-.03404-.38124-.05106-.51739-.05106-.236 0-.48108.01815-.73524.05446s-.48676.10325-.6978.20083c-.21104.09758-.38351.23487-.51739.41187-.13389.177-.19856.40847-.19402.69439.00454.19516.05673.36535.15658.51058.09985.14523.22806.27345.38464.38464.15658.11119.33358.2065.53101.28593.19743.07942.39599.14864.59568.20764.1997.059.39145.11006.57526.15318.18381.04312.34152.0851.47314.12594.1997.06808.42889.13162.68759.19062.2587.059.5242.13048.79651.21445.27231.08396.54008.18835.80332.31316.26323.12481.49697.28593.7012.48335.20423.19743.36876.44137.49356.73184.12481.29047.18721.63993.18721 1.0484z" data-paper-data="{&quot;glyphName&quot;:&quot;S&quot;,&quot;glyphIndex&quot;:10,&quot;lastGlyphOfWord&quot;:true,&quot;word&quot;:3}"/>
      <path d="m295.59517 328.0887.10212-9.44922c0-.07715.03064-.14523.09191-.20423.06127-.059.13729-.0885.22806-.0885h.76247c.08623 0 .15998.0295.22125.0885.06127.059.09191.12708.09191.20423l.10212 9.44922c0 .08623-.0295.15431-.0885.20423-.059.04992-.12254.07489-.19062.07489h-1.04159c-.06808 0-.13162-.02496-.19062-.07489-.059-.04992-.0885-.118-.0885-.20423z" data-paper-data="{&quot;glyphName&quot;:&quot;I&quot;,&quot;glyphIndex&quot;:11,&quot;firstGlyphOfWord&quot;:true,&quot;word&quot;:4}"/>
      <path d="M310.31054 328.0887c0 .08623-.0295.15431-.0885.20423-.059.04992-.12254.07489-.19062.07489h-1.38198c-.06354 0-.11233-.01588-.14637-.04765s-.07148-.07942-.11233-.14296l-4.54761-7.28434c-.02269-.03631-.05333-.0624-.09191-.07829-.03858-.01588-.07602-.02042-.11233-.01362-.03631.00681-.06808.02383-.09531.05106-.02723.02723-.04085.06581-.04085.11573l.07489 7.12095c0 .08169-.0295.14864-.0885.20083-.059.05219-.12254.07829-.19062.07829h-1.04159c-.06808 0-.13162-.02496-.19062-.07489-.059-.04992-.0885-.118-.0885-.20423l.10212-9.44922c0-.07715.03064-.14523.09191-.20423.06127-.059.13729-.0885.22806-.0885h1.17094c.07262 0 .13162.0295.177.0885l4.67015 7.18222c.02269.03631.05219.06127.0885.07489.03631.01362.07148.01588.10552.00681.03404-.00908.06354-.02723.0885-.05446.02496-.02723.03744-.06354.03744-.10892l.07489-6.89629c0-.07715.03064-.14523.09191-.20423.06127-.059.13729-.0885.22806-.0885h.76247c.08623 0 .15885.0295.21785.0885s.09077.12708.09531.20423z" data-paper-data="{&quot;glyphName&quot;:&quot;N&quot;,&quot;glyphIndex&quot;:12,&quot;lastGlyphOfWord&quot;:true,&quot;word&quot;:4}"/>
      <path d="M331.30213 323.78618c-.04085.7307-.19516 1.38766-.46293 1.97086-.26777.5832-.62064 1.07904-1.05861 1.4875-.43797.40847-.94742.72276-1.52835.94288-.58093.22012-1.20725.33018-1.87895.33018-.4947 0-.9599-.06014-1.3956-.18041-.4357-.12027-.83622-.2916-1.20158-.51399-.36535-.22239-.69213-.4913-.98032-.80672-.2882-.31543-.53214-.66603-.73184-1.0518-.1997-.38577-.35287-.80445-.45953-1.25604-.10666-.45158-.15998-.92246-.15998-1.41262 0-.69893.11687-1.35702.3506-1.97426.23373-.61724.56618-1.15732.99734-1.62025.43116-.46293.94969-.82828 1.55558-1.09605.60589-.26777 1.281-.40166 2.02532-.40166.54462 0 1.05294.07262 1.52495.21785.47201.14523.89863.34379 1.27986.59568.38124.25189.71255.55143.99394.89863.28139.3472.50605.72049.67397 1.11988.02723.059.03631.11346.02723.16339-.00908.04992-.0295.09417-.06127.13275s-.07262.06808-.12254.0885c-.04992.02042-.10212.03064-.15658.03064h-.93267c-.07262 0-.13048-.01929-.1736-.05787-.04312-.03858-.07829-.08737-.10552-.14637-.32677-.57185-.74205-.99734-1.24583-1.27646-.50378-.27912-1.07336-.41868-1.70876-.41868-.51285 0-.97692.10098-1.39219.30295-.41528.20196-.77155.47428-1.06882.81694-.29727.34266-.52533.74318-.68418 1.20158-.15885.45839-.23827.94628-.23827 1.46368 0 .54462.08737 1.04727.2621 1.50793.17473.46066.41414.85892.71822 1.19477.30408.33585.66263.59795 1.07563.7863.41301.18835.85778.28252 1.33433.28252.32677 0 .64107-.04198.94288-.12594.30181-.08396.58093-.2031.83736-.35741.25643-.15431.48676-.33812.69099-.55143.20423-.21331.36989-.44705.49697-.7012.01815-.03631.0329-.08056.04425-.13275.01135-.05219.01362-.10212.00681-.14977-.00681-.04765-.02383-.08737-.05106-.11914-.02723-.03177-.06808-.04765-.12254-.04765h-2.01511c-.07715 0-.14637-.02496-.20764-.07489-.06127-.04992-.09191-.12027-.09191-.21104v-.83736c0-.09077.03064-.16225.09191-.21445.06127-.05219.13048-.07829.20764-.07829h3.81917c.07715 0 .14296.0295.19743.0885.05446.059.08169.12254.08169.19062z" data-paper-data="{&quot;glyphName&quot;:&quot;G&quot;,&quot;glyphIndex&quot;:13,&quot;firstGlyphOfWord&quot;:true,&quot;word&quot;:5}"/>
      <path d="M342.48029 328.0887c0 .06808-.02723.13162-.08169.19062-.05446.059-.12027.0885-.19743.0885h-6.50144c-.06808 0-.13162-.02496-.19062-.07489-.059-.04992-.0885-.118-.0885-.20423l.10212-9.44922c0-.07715.03064-.14523.09191-.20423.06127-.059.13729-.0885.22806-.0885h6.2019c.059 0 .11573.02496.17019.07489.05446.04992.08169.10666.08169.17019l.02042.89182c0 .08623-.02496.15091-.07489.19402-.04992.04312-.10666.06694-.17019.07148h-4.8948c-.07262.00454-.13162.03064-.177.07829-.04539.04765-.06808.11006-.06808.18721l.02723 2.12403c0 .06354.02269.12027.06808.17019.04539.04992.10212.07489.17019.07489h4.43868c.06808 0 .12594.0261.1736.07829.04765.05219.07148.10779.07148.16679l.02042.91224c0 .059-.02496.11346-.07489.16339-.04992.04992-.10666.07489-.17019.07489h-4.41826c-.07262 0-.13389.02383-.18381.07148-.04992.04765-.07489.11233-.07489.19402l.02723 2.55973c0 .059.02383.11233.07148.15998.04765.04765.10325.07148.16679.07148h4.92884c.06808 0 .13162.01929.19062.05787.059.03858.09304.10325.10212.19402z" data-paper-data="{&quot;glyphName&quot;:&quot;E&quot;,&quot;glyphIndex&quot;:14,&quot;word&quot;:5}"/>
      <path d="M354.90877 327.83681c.04992.04992.07715.10552.08169.16679.00454.06127-.00681.11914-.03404.1736-.02723.05446-.06581.09985-.11573.13616-.04992.03631-.10439.05446-.16339.05446h-1.01436c-.09985 0-.19629-.02383-.28933-.07148-.09304-.04765-.16679-.11006-.22125-.18721l-2.81843-3.63536c-.04992-.05446-.10439-.08169-.16339-.08169h-1.65429c-.06808 0-.12594.02383-.1736.07148-.04765.04765-.07148.10552-.07148.1736l.03404 3.45155c0 .08623-.0295.15431-.0885.20423-.059.04992-.12254.07489-.19062.07489h-1.04159c-.06808 0-.13162-.02496-.19062-.07489-.059-.04992-.0885-.118-.0885-.20423l.10212-9.44922c0-.07715.03064-.14523.09191-.20423.06127-.059.13729-.0885.22806-.0885h4.12552c.42208 0 .82147.07035 1.19817.21104.3767.14069.70688.34039.99053.59909.28366.2587.50832.57185.67397.93948.16566.36762.24848.77836.24848 1.23221 0 .45839-.07489.85665-.22466 1.19477-.14977.33812-.33472.62291-.55484.85438-.22012.23146-.45726.41641-.71141.55484-.25416.13843-.48335.23941-.68759.30295-.05446.02269-.08737.0624-.09871.11914-.01135.05673.0034.11006.04425.15998zm-3.68982-4.83353c.2587 0 .49243-.03971.7012-.11914.20877-.07942.38577-.19289.53101-.34039.14523-.1475.25756-.32337.33699-.5276.07942-.20423.11914-.43343.11914-.68759 0-.24962-.04085-.47201-.12254-.66716-.08169-.19516-.19743-.36081-.3472-.49697-.14977-.13616-.32904-.23941-.53782-.30975-.20877-.07035-.43797-.10552-.68759-.10552h-2.75035c-.06354 0-.12027.02496-.17019.07489-.04992.04992-.07489.10892-.07489.177l.03404 2.76396c0 .06354.02156.11914.06467.16679.04312.04765.09871.07148.16679.07148z" data-paper-data="{&quot;glyphName&quot;:&quot;R&quot;,&quot;glyphIndex&quot;:15,&quot;word&quot;:5}"/>
      <path d="M369.85552 328.0887c0 .08623-.0295.15431-.0885.20423-.059.04992-.12254.07489-.19062.07489h-1.04159c-.06808 0-.13162-.02496-.19062-.07489-.059-.04992-.0885-.118-.0885-.20423l.07489-7.12095c0-.04539-.01475-.08056-.04425-.10552-.0295-.02496-.06354-.03858-.10212-.04085-.03858-.00227-.07602.00454-.11233.02042-.03631.01588-.06127.03971-.07489.07148l-2.60738 7.29795c-.02269.04539-.05333.08283-.09191.11233s-.08283.04425-.13275.04425h-1.17775c-.11346 0-.18835-.05219-.22466-.15658l-2.64142-7.31838c-.01362-.03631-.03858-.06127-.07489-.07489-.03631-.01362-.07262-.01588-.10892-.00681-.03631.00908-.06921.02723-.09871.05446-.0295.02723-.04425.06127-.04425.10212l.07489 7.12095c0 .08169-.0295.14864-.0885.20083-.059.05219-.12254.07829-.19062.07829h-1.04159c-.06808 0-.13275-.02496-.19402-.07489-.06127-.04992-.08964-.118-.0851-.20423l.10212-9.44922c0-.07715.03064-.14523.09191-.20423.06127-.059.13502-.0885.22125-.0885h1.45006c.05446 0 .10779.01588.15998.04765.05219.03177.08283.07035.09191.11573l2.94097 7.02564c.01815.04085.04879.07262.09191.09531.04312.02269.0885.03404.13616.03404.04765 0 .09304-.01021.13616-.03064.04312-.02042.07375-.05333.09191-.09871l2.95458-7.04607c.01815-.04085.05106-.07489.09871-.10212.04765-.02723.09644-.04085.14637-.04085h1.45687c.08623 0 .15998.0295.22125.0885.06127.059.09191.12708.09191.20423z" data-paper-data="{&quot;glyphName&quot;:&quot;M&quot;,&quot;glyphIndex&quot;:16,&quot;word&quot;:5}"/>
      <path d="M382.96486 328.01381c.01815.04992.02042.09644.00681.13956-.01362.04312-.03631.07942-.06808.10892s-.06808.05333-.10892.07148c-.04085.01815-.07942.0295-.11573.03404h-1.10286c-.05446 0-.10892-.01815-.16339-.05446-.05446-.03631-.08623-.07942-.09531-.12935l-.83055-2.46442c-.04539-.12708-.12935-.19062-.25189-.19062h-3.4924c-.11346 0-.19516.059-.24508.177l-.87821 2.50527c-.03631.09531-.11346.1475-.23146.15658h-1.08925c-.11346 0-.20196-.03404-.2655-.10212-.06354-.06808-.06808-.16793-.01362-.29954l3.54005-9.44922c.04085-.11346.12254-.17019.24508-.17019h1.32752c.12708 0 .22012.06581.27912.19743zm-3.17924-4.2004-1.07563-3.13839c-.02269-.06354-.0556-.11119-.09871-.14296-.04312-.03177-.0885-.04879-.13616-.05106-.04765-.00227-.09304.01248-.13616.04425-.04312.03177-.07602.08169-.09871.14977l-1.06202 3.13839c-.02723.07715-.01475.13729.03744.18041.05219.04312.11687.06467.19402.06467h2.14445c.07262 0 .13616-.02269.19062-.06808.05446-.04539.06808-.10439.04085-.177z" data-paper-data="{&quot;glyphName&quot;:&quot;A&quot;,&quot;glyphIndex&quot;:17,&quot;word&quot;:5}"/>
      <path d="M395.35525 328.0887c0 .08623-.0295.15431-.0885.20423-.059.04992-.12254.07489-.19062.07489h-1.38198c-.06354 0-.11233-.01588-.14637-.04765s-.07148-.07942-.11233-.14296l-4.54761-7.28434c-.02269-.03631-.05333-.0624-.09191-.07829-.03858-.01588-.07602-.02042-.11233-.01362-.03631.00681-.06808.02383-.09531.05106-.02723.02723-.04085.06581-.04085.11573l.07489 7.12095c0 .08169-.0295.14864-.0885.20083-.059.05219-.12254.07829-.19062.07829h-1.04159c-.06808 0-.13162-.02496-.19062-.07489-.059-.04992-.0885-.118-.0885-.20423l.10212-9.44922c0-.07715.03064-.14523.09191-.20423.06127-.059.13729-.0885.22806-.0885h1.17094c.07262 0 .13162.0295.177.0885l4.67015 7.18222c.02269.03631.05219.06127.0885.07489.03631.01362.07148.01588.10552.00681.03404-.00908.06354-.02723.0885-.05446.02496-.02723.03744-.06354.03744-.10892l.07489-6.89629c0-.07715.03064-.14523.09191-.20423.06127-.059.13729-.0885.22806-.0885h.76247c.08623 0 .15885.0295.21785.0885s.09077.12708.09531.20423z" data-paper-data="{&quot;glyphName&quot;:&quot;N&quot;,&quot;glyphIndex&quot;:18,&quot;word&quot;:5}"/>
      <path d="M406.77672 318.34675c.06354 0 .118.01815.16339.05446.04539.03631.07829.08056.09871.13275.02042.05219.02837.10892.02383.17019-.00454.06127-.02496.11687-.06127.16679l-2.94097 4.84034c-.00908.02269-.01815.04425-.02723.06467-.00908.02042-.01362.04198-.01362.06467l.11573 4.24806c0 .08623-.0295.15431-.0885.20423-.059.04992-.12254.07489-.19062.07489h-1.18456c-.06808 0-.13162-.02496-.19062-.07489-.059-.04992-.0885-.118-.0885-.20423l.11573-4.24806c0-.04992-.01135-.09304-.03404-.12935l-2.98862-4.87438c-.04085-.05446-.06127-.11006-.06127-.16679 0-.05673.01248-.10892.03744-.15658.02496-.04765.06014-.08737.10552-.11914.04539-.03177.09304-.04765.14296-.04765h.99394c.04539 0 .08737.01248.12594.03744.03858.02496.06921.0556.09191.09191l2.11722 3.32901c.02723.03631.059.06354.09531.08169.03631.01815.07489.02496.11573.02042.04085-.00454.08056-.01702.11914-.03744.03858-.02042.07148-.04879.09871-.0851l2.11042-3.30859c.02269-.03631.05333-.06694.09191-.09191.03858-.02496.07829-.03744.11914-.03744z" data-paper-data="{&quot;glyphName&quot;:&quot;Y&quot;,&quot;glyphIndex&quot;:19,&quot;lastGlyphOfWord&quot;:true,&quot;word&quot;:5}"/>
    </g>
    <g data-paper-data="{&quot;isPrimaryText&quot;:true}">
      <path d="M142.15021 274.10879v36.29776h4.35573v-15.71174h.82966v15.71174h4.35573v-15.71174h9.85224c2.90382 0 5.2891-1.03708 7.2077-3.00753 2.07416-2.0223 3.05938-4.45944 3.05938-7.25955 0-2.90382-.98522-5.2891-3.00753-7.25955-1.97045-2.07416-4.35573-3.05938-7.25955-3.05938H147.3356zm4.35573 4.35573h.82966v11.87455h-.82966zm5.18539 0h4.615c1.65933 0 3.00753.51854 4.14832 1.71118 1.19264 1.14079 1.76303 2.54084 1.76303 4.20017 0 1.65933-.57039 3.05938-1.71118 4.20017s-2.48899 1.76303-4.14832 1.76303h-4.66685zm14.15613 1.9186c1.03708 1.14079 1.55562 2.48899 1.55562 4.04461 0 1.55562-.51854 2.90382-1.60747 4.04461.57039-1.24449.82966-2.5927.82966-4.04461 0-1.50376-.25927-2.85197-.77781-4.04461z" data-paper-data="{&quot;glyphName&quot;:&quot;P&quot;,&quot;glyphIndex&quot;:0,&quot;firstGlyphOfWord&quot;:true,&quot;word&quot;:1}"/>
      <path d="M174.87004 274.10879v36.29776h27.37887v-4.35573h-17.83775v-31.94203h-4.35573v31.94203h-.82966v-31.94203z" data-paper-data="{&quot;glyphName&quot;:&quot;L&quot;,&quot;glyphIndex&quot;:1,&quot;word&quot;:1}"/>
      <path d="m220.08668 274.10879-14.77837 36.29776h4.40758l2.80011-6.84472h.77781l-2.80011 6.84472h4.40758l2.80011-6.84472h9.95596l2.80011 6.84472h4.40758l-2.74826-6.84472h.72596l2.80011 6.84472h4.40758l-14.77837-36.29776-2.5927 6.37803zm0 10.88933.41483.93337-5.54837 13.53388h-.72596zm5.18539 0 5.91135 14.46725h-.77781l-5.49652-13.53388zm-2.59269 6.32618 3.31865 8.14107h-6.58545z" data-paper-data="{&quot;glyphName&quot;:&quot;A&quot;,&quot;glyphIndex&quot;:2,&quot;word&quot;:1}"/>
      <path d="M233.20572 274.10879v4.35573h10.00781v31.94203h4.40758v-31.94203h.77781v31.94203h4.40758v-31.94203h10.05966v-4.35573H238.3911z" data-paper-data="{&quot;glyphName&quot;:&quot;T&quot;,&quot;glyphIndex&quot;:3,&quot;word&quot;:1}"/>
      <path d="m265.92556 274.10879 12.18568 20.53416v15.7636h4.35573v-15.7636l.41483-.72596.41483.72596v15.7636h4.35573v-15.7636l12.18568-20.53416h-4.97798l-8.86702 15.55618-.36298-.57039 8.50405-14.98579h-4.97798l-6.27433 10.37079-6.22247-10.37079h-5.02983l8.50405 14.98579-.36298.57039-8.81517-15.55618z" data-paper-data="{&quot;glyphName&quot;:&quot;Y&quot;,&quot;glyphIndex&quot;:4,&quot;word&quot;:1}"/>
      <path d="m302.94927 274.16065 8.29663 36.2459 3.52607-7.72624 1.76303 7.72624 8.19292-17.99332 8.19292 17.99332 1.81489-7.72624 3.47421 7.72624 8.34848-36.2459h-4.51129l-5.23725 22.76388-.51854-1.14079 4.97798-21.62309h-4.51129l-3.42236 15.0895-5.9632-13.01534-2.64455 5.80764-2.64455-5.80764-5.91135 13.01534-3.47421-15.0895h-4.45944l4.92612 21.57124-.51854 1.19264-5.23725-22.76388zm19.13411 12.44494.41483.6741-4.45944 9.9041-.31112-.98522zm5.2891 0 4.35573 9.54112-.25927.98522-4.45944-9.80039z" data-paper-data="{&quot;glyphName&quot;:&quot;W&quot;,&quot;glyphIndex&quot;:5,&quot;word&quot;:1}"/>
      <path d="M349.61782 274.10879v36.29776h25.51214v-4.35573h-16.07472v-11.35601h16.07472v-4.35573h-16.07472v-11.87455h16.07472v-4.35573h-20.43045zm4.35573 4.35573h.72596v11.87455h-.72596zm0 16.23029h.72596v11.35601h-.72596z" data-paper-data="{&quot;glyphName&quot;:&quot;E&quot;,&quot;glyphIndex&quot;:6,&quot;word&quot;:1}"/>
      <path d="M378.18934 274.10879v36.29776h19.60078c2.80011-.10371 5.18539-1.14079 7.05214-3.00753 2.0223-1.9186 3.00753-4.25202 3.00753-7.00028 0-1.76303-.36298-3.2668-.98522-4.51129-.93337-1.81489-2.54084-3.11124-4.77056-3.9409 2.22972-2.0223 3.31865-4.51129 3.31865-7.51882 0-2.85197-.98522-5.23725-2.95567-7.2077-1.9186-2.07416-4.30388-3.11124-7.15584-3.11124h-11.92641zm4.35573 4.35573h.82966v11.87455h-.82966zm5.18539 0h2.28158c1.55562 0 2.95567.51854 4.09646 1.71118 1.19264 1.14079 1.76303 2.5927 1.76303 4.25202 0 1.55562-.57039 2.95567-1.76303 4.14832-1.14079 1.14079-2.54084 1.76303-4.14832 1.76303h-2.22972zm11.71899 1.86674c1.08893 1.14079 1.60747 2.48899 1.60747 4.09646 0 1.50376-.51854 2.85197-1.60747 3.99275.51854-1.24449.77781-2.54084.77781-3.99275 0-1.50376-.25927-2.85197-.77781-4.09646zm-16.90438 14.36355h.82966v11.40787h-.82966zm5.18539 0h4.615c1.65933 0 3.05938.51854 4.14832 1.65933 1.19264 1.14079 1.76303 2.48899 1.76303 4.04461 0 1.3482-.41483 2.5927-1.3482 3.62978-.82966.98522-1.97045 1.65933-3.42236 1.97045-.62225.05185-1.29635.10371-2.12601.10371h-3.62978zm14.25984 2.0223c.98522 1.03708 1.45191 2.22972 1.45191 3.68163 0 1.3482-.41483 2.5927-1.3482 3.62978-.05185.05185-.10371.15556-.20742.25927.51854-1.24449.77781-2.54084.77781-3.88905 0-1.3482-.20742-2.5927-.6741-3.68163z" data-paper-data="{&quot;glyphName&quot;:&quot;B&quot;,&quot;glyphIndex&quot;:7,&quot;lastGlyphOfWord&quot;:true,&quot;word&quot;:1}"/>
    </g>
    <g data-paper-data="{&quot;fillRule&quot;:&quot;nonzero&quot;,&quot;fillRuleOriginal&quot;:&quot;nonzero&quot;,&quot;isIcon&quot;:true,&quot;iconStyle&quot;:&quot;standalone&quot;,&quot;selectedEffects&quot;:{&quot;container&quot;:&quot;&quot;,&quot;transformation&quot;:&quot;&quot;,&quot;pattern&quot;:&quot;&quot;},&quot;bounds&quot;:{&quot;x&quot;:224.49126937392526,&quot;y&quot;:114.99999999999999,&quot;width&quot;:101.01746125214947,&quot;height&quot;:133.6209804922612},&quot;iconType&quot;:&quot;icon&quot;,&quot;rawIconId&quot;:&quot;3a40ab1f-df1a-40cf-b97c-caf92cfeb571&quot;,&quot;suitableAsStandaloneIcon&quot;:true}">
      <path d="M308.138 187.28895c.40086-.26724.80173-.53448 1.20259-.80173.53448-.40086 1.06897-.80173 1.60345-1.20259l.93535-.93535c.26724-.26724.53448-.53448.93535-.80173l1.73707-1.73707c5.34484-5.87932 8.2845-12.69399 9.21985-16.03452 1.20259-3.47415 1.73707-7.34915 1.73707-11.22416 0-21.78022-17.77159-39.55181-39.55181-39.55181h-61.46565v133.62098h24.71988v-108.9011h36.74577c8.15088 0 14.83193 6.68105 14.83193 14.83193s-6.68105 14.83193-14.83193 14.83193H259.0991l11.09054 22.98281h20.97849c6.54743 0 11.89227-1.87069 16.16814-4.54311.26724-.13362.53448-.40086.80173-.53448z" data-paper-data="{&quot;isPathIcon&quot;:true}"/>
    </g>
    <path d="M121.92301 349.82576V186.25883c0-1.42879.50532-2.64851 1.51597-3.65916 1.01006-1.01006 2.22948-1.51509 3.65827-1.51509h93.03851v1.45192h-93.03851c-1.02785 0-1.90505.36328-2.6316 1.08983-.72715.72715-1.09072 1.60464-1.09072 2.63249v163.56693c0 1.02785.36357 1.90535 1.09072 2.63249.72655.72655 1.60375 1.08983 2.6316 1.08983h295.80549c1.02785 0 1.90505-.36328 2.6316-1.08983.72715-.72715 1.09072-1.60464 1.09072-2.63249V186.25882c0-1.02785-.36357-1.90535-1.09072-2.63249-.72655-.72655-1.60375-1.08983-2.6316-1.08983H319.64818l.11399-.14235.97835-1.30957h102.16221c1.42879 0 2.64821.50503 3.65827 1.51509 1.01065 1.01065 1.51597 2.23037 1.51597 3.65916v163.56693c0 1.42879-.50532 2.64851-1.51597 3.65916-1.01006 1.01006-2.22948 1.51509-3.65827 1.51509H127.09724c-1.42879 0-2.64821-.50503-3.65827-1.51509-1.01065-1.01065-1.51597-2.23037-1.51597-3.65916z" data-paper-data="{&quot;isLogoContainer&quot;:true}"/>
  </g>
</svg>
